HIERARCHY
ROOT SpineBase
{
  OFFSET 0.000000 0.000000 0.000000
  CHANNELS 6 Xposition Yposition Zposition Zrotation Xrotation Yrotation
  JOINT SpineMid
  {
    OFFSET -0.000000 28.854359 0.000000
    CHANNELS 3 Zrotation Xrotation Yrotation
    JOINT SpineShoulder
    {
      OFFSET -0.010700 21.458889 -0.712475
      CHANNELS 3 Zrotation Xrotation Yrotation
      JOINT Neck
      {
        OFFSET -0.021844 7.106518 -0.539574
        CHANNELS 3 Zrotation Xrotation Yrotation
        JOINT Head
        {
          OFFSET -1.519344 12.306681 0.877191
          CHANNELS 3 Zrotation Xrotation Yrotation
          End Site
          {
            OFFSET 0 0 0
          }
        }
      }
      JOINT ShoulderLeft
      {
        OFFSET -15.900370 -2.540543 3.988154
        CHANNELS 3 Zrotation Xrotation Yrotation
        JOINT ElbowLeft
        {
          OFFSET -4.469535 -27.373440 3.712603
          CHANNELS 3 Zrotation Xrotation Yrotation
          JOINT WristLeft
          {
            OFFSET -3.394226 -20.703586 -3.573427
            CHANNELS 3 Zrotation Xrotation Yrotation
            JOINT HandLeft
            {
              OFFSET 0.191180 -6.948639 -2.169772
              CHANNELS 3 Zrotation Xrotation Yrotation
              JOINT HandTipLeft
              {
                OFFSET 0.848229 -6.338377 -1.108636
                CHANNELS 3 Zrotation Xrotation Yrotation
                End Site
                {
                  OFFSET 0 0 0
                }
              }
              JOINT ThumbLeft
              {
                OFFSET -1.869130 -2.617979 -2.286769
                CHANNELS 3 Zrotation Xrotation Yrotation
                End Site
                {
                  OFFSET 0 0 0
                }
              }
            }
          }
        }
      }
      JOINT ShoulderRight
      {
        OFFSET 15.617224 -1.952391 -5.181168
        CHANNELS 3 Zrotation Xrotation Yrotation
        JOINT ElbowRight
        {
          OFFSET 6.528920 -24.917113 -2.710161
          CHANNELS 3 Zrotation Xrotation Yrotation
          JOINT WristRight
          {
            OFFSET 0.241529 -22.759823 -4.729008
            CHANNELS 3 Zrotation Xrotation Yrotation
            JOINT HandRight
            {
              OFFSET -1.193068 -7.271511 -1.460485
              CHANNELS 3 Zrotation Xrotation Yrotation
              JOINT HandTipRight
              {
                OFFSET -0.833829 -6.322031 -1.588247
                CHANNELS 3 Zrotation Xrotation Yrotation
                End Site
                {
                  OFFSET 0 0 0
                }
              }
              JOINT ThumbRight
              {
                OFFSET -2.704287 0.242396 -2.381225
                CHANNELS 3 Zrotation Xrotation Yrotation
                End Site
                {
                  OFFSET 0 0 0
                }
              }
            }
          }
        }
      }
    }
  }
  JOINT HipLeft
  {
    OFFSET -6.008668 0.553309 -1.885779
    CHANNELS 3 Zrotation Xrotation Yrotation
    JOINT KneeLeft
    {
      OFFSET -7.706964 -31.585816 -0.010728
      CHANNELS 3 Zrotation Xrotation Yrotation
      JOINT AnkleLeft
      {
        OFFSET -0.315626 -34.211034 5.950319
        CHANNELS 3 Zrotation Xrotation Yrotation
        JOINT FootLeft
        {
          OFFSET -2.474824 -3.944772 -12.216064
          CHANNELS 3 Zrotation Xrotation Yrotation
          End Site
          {
            OFFSET 0 0 0
          }
        }
      }
    }
  }
  JOINT HipRight
  {
    OFFSET 5.471981 0.759393 -4.839861
    CHANNELS 3 Zrotation Xrotation Yrotation
    JOINT KneeRight
    {
      OFFSET 6.056880 -26.971705 0.213332
      CHANNELS 3 Zrotation Xrotation Yrotation
      JOINT AnkleRight
      {
        OFFSET 1.629955 -40.308112 10.359962
        CHANNELS 3 Zrotation Xrotation Yrotation
        JOINT FootRight
        {
          OFFSET -4.578136 -4.764965 -9.458935
          CHANNELS 3 Zrotation Xrotation Yrotation
          End Site
          {
            OFFSET 0 0 0
          }
        }
      }
    }
  }
}
MOTION
Frames: 16
Frame Time: 0.033333
24.385726 72.385768 370.157434 4.288884 -8.782998 -4.742744 0.173929 0.268652 5.190908 -0.900760 -0.185661 0.171284 5.862499 3.905063 -2.258646 0.000000 0.000000 0.000000 10.890590 21.289091 -4.036381 2.874955 -5.983088 -2.557190 -11.432032 -0.082430 1.930724 120.301947 82.159547 -103.912580 0.000000 0.000000 0.000000 0.000000 0.000000 0.000000 13.330928 -2.945131 -5.601570 -34.659237 6.385338 12.212146 -16.845243 3.407706 3.980011 20.105522 -3.196617 -2.618428 0.000000 0.000000 0.000000 0.000000 0.000000 0.000000 3.822266 -0.856943 7.339149 -3.683629 12.418842 -1.930449 0.694078 -23.415095 -1.489548 0.000000 0.000000 0.000000 -6.520019 14.360767 7.099664 7.499079 -6.610787 1.141903 -1.501517 3.965657 -15.191220 0.000000 0.000000 0.000000
23.888638 72.172625 370.228753 3.869526 -8.971996 -5.896781 0.164278 0.298798 6.304911 -0.830361 -0.302372 0.156640 6.329130 3.085681 -2.364010 0.000000 0.000000 0.000000 9.934274 21.035722 -3.753011 5.745536 -5.591375 -2.425093 -11.372442 -2.107666 1.756973 84.710194 83.191223 -70.940668 0.000000 0.000000 0.000000 0.000000 0.000000 0.000000 13.671752 -3.216840 -5.737843 -34.912770 7.659802 12.731177 -15.617847 2.306091 3.274843 17.871277 -2.351358 -2.288982 0.000000 0.000000 0.000000 0.000000 0.000000 0.000000 4.534584 -0.141521 8.261411 -3.614411 11.654344 -1.790261 1.000653 -27.043049 -0.813311 0.000000 0.000000 0.000000 -5.749239 15.021668 8.227993 6.954810 -7.300888 1.118344 -0.360705 2.804791 -17.087190 0.000000 0.000000 0.000000
23.446858 71.961675 370.227216 3.823438 -9.143465 -6.694213 0.554340 0.358734 7.082454 -0.555729 -0.310786 0.173864 3.226664 3.730314 -1.915214 0.000000 0.000000 0.000000 7.731619 21.047657 -3.515220 9.968623 -5.730994 -2.068245 -10.863453 -6.266529 1.574770 23.519073 66.468217 -13.144328 0.000000 0.000000 0.000000 0.000000 0.000000 0.000000 12.233866 -3.287136 -5.690151 -35.231656 8.586855 13.282218 -12.223009 -0.728816 1.997484 13.852679 1.451932 -1.848596 0.000000 0.000000 0.000000 0.000000 0.000000 0.000000 4.770142 0.337471 8.945733 -3.570700 11.099518 -1.698210 1.372191 -29.839371 -0.579255 0.000000 0.000000 0.000000 -5.170428 15.106231 8.881973 6.080738 -7.371998 1.033965 1.288230 3.448862 -20.652850 0.000000 0.000000 0.000000
23.168755 71.742873 370.158869 4.106950 -9.269088 -6.932284 0.869363 0.337871 7.342146 -0.499591 -0.282260 0.200018 -0.960816 5.373051 -1.132195 0.000000 0.000000 0.000000 6.056950 21.025300 -3.341193 14.058231 -6.183502 -1.736090 -8.476469 -11.992214 1.471474 3.522466 44.421045 -0.809302 0.000000 0.000000 0.000000 0.000000 0.000000 0.000000 11.372511 -3.529574 -5.746973 -34.704865 9.474000 13.448414 -13.361725 -0.365178 2.126148 13.436023 -4.738626 -1.790654 0.000000 0.000000 0.000000 0.000000 0.000000 0.000000 4.264295 0.575301 9.189416 -3.094064 10.675157 -1.660282 1.426648 -30.970269 -1.711669 0.000000 0.000000 0.000000 -5.117999 15.312134 9.116624 5.446169 -7.657420 0.923391 2.383499 0.732221 -20.714884 0.000000 0.000000 0.000000
22.903742 71.558453 370.041424 4.375609 -9.340170 -7.463602 1.301602 0.255352 7.890639 -0.403486 -0.240927 0.229247 -6.517233 7.954798 0.156877 0.000000 0.000000 0.000000 4.798500 21.142595 -3.274941 17.685814 -6.937225 -1.370610 -4.388465 -18.332283 1.855877 -7.788839 35.353714 3.656106 0.000000 0.000000 0.000000 0.000000 0.000000 0.000000 11.023392 -4.069497 -5.940343 -33.811125 10.272400 13.437882 -17.824213 5.147579 3.697546 18.843135 -16.255231 -1.750713 0.000000 0.000000 0.000000 0.000000 0.000000 0.000000 3.665202 0.731992 9.748652 -2.545595 10.254101 -1.634580 0.688094 -27.821075 -4.370377 0.000000 0.000000 0.000000 -5.305497 15.503276 9.702667 5.083835 -8.183059 0.855779 3.675960 1.579093 -23.817312 0.000000 0.000000 0.000000
22.635298 71.364078 369.862943 4.846668 -9.348700 -7.654863 1.725676 0.064070 8.129247 -0.344871 -0.155583 0.263290 -14.020605 11.311644 2.287293 0.000000 0.000000 0.000000 3.693453 21.335975 -3.264606 20.709600 -7.841974 -0.943802 1.462051 -24.967445 3.073614 -17.923345 36.386994 8.062292 0.000000 0.000000 0.000000 0.000000 0.000000 0.000000 10.828396 -4.671778 -6.176412 -33.817962 11.165317 13.729256 -24.471324 9.781106 5.957876 28.192767 -23.748798 -0.804279 0.000000 0.000000 0.000000 0.000000 0.000000 0.000000 2.904756 0.697306 10.031200 -1.871944 9.991616 -1.631494 0.258910 -27.894940 -3.714599 0.000000 0.000000 0.000000 -5.819765 15.250647 9.930709 5.219133 -8.359435 0.930282 4.441934 5.876306 -28.089877 0.000000 0.000000 0.000000
22.367714 71.273190 369.719801 5.075307 -9.350166 -8.271708 1.646472 0.024816 8.779533 -0.653753 -0.028888 0.265223 -18.380876 13.428701 3.946444 0.000000 0.000000 0.000000 3.763159 21.538520 -3.316026 23.073287 -8.758076 -0.416215 6.656251 -30.431006 4.986257 -24.873936 38.571178 11.520609 0.000000 0.000000 0.000000 0.000000 0.000000 0.000000 13.706136 -6.327562 -6.686023 -35.963928 11.432089 14.690736 -30.948077 17.167147 9.551100 35.805095 -28.901762 2.169917 0.000000 0.000000 0.000000 0.000000 0.000000 0.000000 2.510025 0.691310 10.694948 -1.321951 9.787668 -1.625647 0.072807 -29.413329 -2.112247 0.000000 0.000000 0.000000 -6.335291 15.540933 10.714958 5.666969 -8.958501 1.050487 3.533028 1.812836 -24.679012 0.000000 0.000000 0.000000
22.094563 71.215509 369.602330 5.089651 -9.285644 -8.625193 1.368785 0.021184 9.144845 -0.891425 0.082404 0.250322 -19.894454 13.707120 4.566249 0.000000 0.000000 0.000000 4.447040 21.613043 -3.396553 24.147560 -9.609717 0.042124 9.580210 -32.222642 5.819364 -28.225847 40.732656 13.115985 0.000000 0.000000 0.000000 0.000000 0.000000 0.000000 18.190851 -8.889430 -7.255548 -41.194177 13.109362 17.134646 -32.277817 17.192422 9.612120 39.361480 -30.255116 3.066002 0.000000 0.000000 0.000000 0.000000 0.000000 0.000000 2.461411 0.606999 11.065823 -0.929054 9.784072 -1.633536 0.290415 -32.412541 0.843623 0.000000 0.000000 0.000000 -6.838457 16.393421 11.386522 6.156084 -10.549405 1.090612 3.411339 0.845794 -24.260875 0.000000 0.000000 0.000000
21.840014 71.265560 369.515228 4.685685 -9.140775 -9.212315 0.839575 0.063058 9.700270 -1.239223 0.172795 0.209442 -16.809889 12.616844 3.783347 0.000000 0.000000 0.000000 6.153944 21.610276 -3.514984 23.420600 -10.421520 0.405263 10.052755 -29.534666 4.384629 -27.460731 38.450836 12.258376 0.000000 0.000000 0.000000 0.000000 0.000000 0.000000 24.401258 -11.999864 -7.641711 -46.052708 15.128461 19.385111 -39.222824 18.806258 11.707516 44.879348 -28.624593 4.509590 0.000000 0.000000 0.000000 0.000000 0.000000 0.000000 2.699348 0.655750 11.562899 -0.329375 9.562891 -1.595144 0.875635 -36.255867 4.293604 0.000000 0.000000 0.000000 -7.134561 17.619933 12.373057 6.754805 -12.429984 1.135731 2.970745 1.359878 -24.270646 0.000000 0.000000 0.000000
21.557452 71.290745 369.445111 4.090972 -8.940645 -9.478820 0.157692 0.100292 9.918628 -1.312867 0.174788 0.155235 -9.475698 10.405489 1.802160 0.000000 0.000000 0.000000 7.087363 21.205720 -3.397203 22.431515 -10.694139 0.567884 5.158891 -21.735131 1.339843 -19.909033 32.478548 8.198157 0.000000 0.000000 0.000000 0.000000 0.000000 0.000000 31.373425 -15.254523 -7.736244 -54.326614 18.088322 23.173841 -38.694731 17.202021 9.606449 46.465172 -30.233537 5.212410 0.000000 0.000000 0.000000 0.000000 0.000000 0.000000 3.215067 0.721041 11.692946 0.153934 9.311719 -1.535243 -0.621740 -32.765646 2.934208 0.000000 0.000000 0.000000 -6.990299 19.020742 13.007071 7.189455 -14.280697 1.186287 2.277883 3.324332 -24.723314 0.000000 0.000000 0.000000
21.304917 71.299372 369.393706 3.383017 -8.711996 -9.330789 -0.395901 0.133103 9.706203 -1.129021 0.088858 0.102256 -0.040643 6.862258 -0.540628 0.000000 0.000000 0.000000 8.102536 21.401947 -3.473370 21.373773 -11.169766 0.859040 7.345228 -20.010612 0.391508 -22.085732 30.226294 9.200307 0.000000 0.000000 0.000000 0.000000 0.000000 0.000000 38.185816 -17.950981 -7.552786 -62.547629 20.710548 26.652795 -38.975337 14.031891 7.047284 45.181964 -31.695737 4.473670 0.000000 0.000000 0.000000 0.000000 0.000000 0.000000 3.939164 0.687018 11.413934 0.413329 9.187574 -1.498358 -0.484373 -34.278615 2.065132 0.000000 0.000000 0.000000 -6.464561 20.437555 13.160329 7.439076 -15.925869 1.212990 1.454495 6.485760 -25.411604 0.000000 0.000000 0.000000
21.164368 71.358075 369.342878 3.181544 -8.575205 -8.991414 -0.475998 0.245375 9.340871 -0.553535 0.019724 0.092241 5.309956 3.789719 -1.840067 0.000000 0.000000 0.000000 7.876058 21.876167 -3.633527 21.322859 -11.376767 1.083011 7.969009 -17.892512 -0.323161 -23.219788 24.351732 9.713846 0.000000 0.000000 0.000000 0.000000 0.000000 0.000000 42.817766 -19.767634 -7.238734 -70.181137 23.286597 29.685429 -37.474535 11.595256 4.026845 38.343319 -30.615434 2.940842 0.000000 0.000000 0.000000 0.000000 0.000000 0.000000 4.047101 0.599137 11.042857 0.646931 9.102114 -1.483039 -0.777729 -33.714913 1.739816 0.000000 0.000000 0.000000 -6.744144 22.063932 13.348114 7.900896 -17.848864 1.243321 1.569541 4.406312 -25.162331 0.000000 0.000000 0.000000
21.112470 71.436666 369.326078 3.220299 -8.541891 -8.844652 -0.310887 0.341756 9.187839 -0.039982 -0.005126 0.103995 6.940387 2.285495 -2.299358 0.000000 0.000000 0.000000 7.615269 22.740038 -3.946150 22.554857 -11.069732 1.138876 6.528623 -16.996812 -0.047136 -25.708656 19.332074 10.782643 0.000000 0.000000 0.000000 0.000000 0.000000 0.000000 45.430002 -19.934068 -7.132590 -76.454638 26.137406 31.737210 -33.537986 5.646170 -0.507515 26.679106 -22.941288 0.453553 0.000000 0.000000 0.000000 0.000000 0.000000 0.000000 3.888432 0.591960 10.895753 0.774184 9.007348 -1.468990 -0.735380 -33.916615 2.289731 0.000000 0.000000 0.000000 -7.025413 23.148524 13.556608 7.899391 -19.038424 1.156405 1.452869 5.568499 -25.549219 0.000000 0.000000 0.000000
21.211667 71.510279 369.323249 3.503339 -8.469702 -7.931297 -0.225370 0.486800 8.293865 0.170490 0.065292 0.120071 7.995069 0.692178 -2.555757 0.000000 0.000000 0.000000 8.283475 23.773552 -4.460871 25.068638 -9.889075 0.786659 3.826645 -18.058438 1.417116 -26.435517 15.569521 10.971628 0.000000 0.000000 0.000000 0.000000 0.000000 0.000000 47.345179 -19.335642 -7.037413 -79.677909 29.617847 32.071412 -32.213536 5.574587 -2.785100 20.205757 -27.370836 0.081747 0.000000 0.000000 0.000000 0.000000 0.000000 0.000000 3.241442 0.571649 9.999795 1.029719 8.773710 -1.428241 -0.329576 -34.972540 1.978377 0.000000 0.000000 0.000000 -7.208504 23.260151 12.718581 8.113728 -19.158588 1.161571 1.246253 7.345603 -25.994912 0.000000 0.000000 0.000000
21.313000 71.679154 369.255034 3.821560 -8.267254 -6.961184 0.044443 0.573330 7.336165 0.346465 0.180760 0.143239 7.144963 -0.488699 -2.513305 0.000000 0.000000 0.000000 8.373778 24.673273 -4.907043 26.749239 -8.253988 0.203575 6.270497 -15.971455 1.224307 -32.088460 6.011428 12.194753 0.000000 0.000000 0.000000 0.000000 0.000000 0.000000 47.860307 -17.435216 -7.163750 -82.269928 32.632686 31.782746 -30.485063 4.462353 -5.246036 17.277935 -33.160439 -0.495807 0.000000 0.000000 0.000000 0.000000 0.000000 0.000000 2.704230 0.509105 9.028086 1.133744 8.358377 -1.348801 0.905695 -38.588268 3.177853 0.000000 0.000000 0.000000 -7.180746 22.478526 11.553484 8.158878 -18.419229 1.137208 1.258707 11.640733 -27.728897 0.000000 0.000000 0.000000
21.449019 71.882566 369.148072 4.226858 -7.933748 -5.619074 0.311152 0.641164 6.010548 0.377189 0.321749 0.167258 4.821062 -0.723793 -2.232858 0.000000 0.000000 0.000000 8.227832 25.161808 -5.209853 29.759989 -5.205227 -1.157724 5.743937 -14.616334 1.861626 -34.403925 -0.773888 11.855784 0.000000 0.000000 0.000000 0.000000 0.000000 0.000000 46.392613 -14.000193 -7.477817 -83.646848 34.531592 30.802227 -30.189715 1.399059 -7.916461 17.809569 -34.453890 -0.940332 0.000000 0.000000 0.000000 0.000000 0.000000 0.000000 2.141302 0.321432 7.692910 1.268477 7.856492 -1.255986 -0.395442 -33.891268 0.284287 0.000000 0.000000 0.000000 -6.903742 20.506704 9.669453 8.298742 -16.529023 1.241988 0.988313 13.719063 -27.875140 0.000000 0.000000 0.000000
